<svg xmlns="http://www.w3.org/2000/svg" viewBox="0 0 512 512">
  <defs>
    <linearGradient id="grad" x1="0%" y1="0%" x2="100%" y2="100%">
      <stop offset="0%" style="stop-color:#667eea;stop-opacity:1" />
      <stop offset="100%" style="stop-color:#764ba2;stop-opacity:1" />
    </linearGradient>
  </defs>
  
  <!-- Background Circle -->
  <circle cx="256" cy="256" r="240" fill="url(#grad)"/>
  
  <!-- Robot Head -->
  <rect x="156" y="180" width="200" height="180" rx="20" fill="white" opacity="0.95"/>
  
  <!-- Antenna -->
  <line x1="256" y1="140" x2="256" y2="180" stroke="white" stroke-width="8" stroke-linecap="round"/>
  <circle cx="256" cy="130" r="12" fill="white"/>
  
  <!-- Eyes -->
  <circle cx="206" cy="240" r="20" fill="#667eea"/>
  <circle cx="306" cy="240" r="20" fill="#667eea"/>
  
  <!-- Eye Highlights -->
  <circle cx="212" cy="234" r="8" fill="white"/>
  <circle cx="312" cy="234" r="8" fill="white"/>
  
  <!-- Mouth -->
  <rect x="196" y="300" width="120" height="8" rx="4" fill="#667eea"/>
  <rect x="220" y="300" width="8" height="30" fill="#667eea"/>
  <rect x="244" y="300" width="8" height="30" fill="#667eea"/>
  <rect x="268" y="300" width="8" height="30" fill="#667eea"/>
  <rect x="292" y="300" width="8" height="30" fill="#667eea"/>
  
  <!-- Sparkles (AI Magic) -->
  <path d="M 380 200 L 390 220 L 410 210 L 400 230 L 420 240 L 400 250 L 410 270 L 390 260 L 380 280 L 370 260 L 350 270 L 360 250 L 340 240 L 360 230 L 350 210 L 370 220 Z" fill="white" opacity="0.9"/>
  <path d="M 120 320 L 128 335 L 143 327 L 135 342 L 150 350 L 135 358 L 143 373 L 128 365 L 120 380 L 112 365 L 97 373 L 105 358 L 90 350 L 105 342 L 97 327 L 112 335 Z" fill="white" opacity="0.9"/>
</svg>
